<?xml version="1.0" encoding="utf-8"?>
<!-- Generator: Adobe Illustrator 19.1.0, SVG Export Plug-In . SVG Version: 6.00 Build 0)  -->
<svg version="1.1" id="Camada_1" xmlns="http://www.w3.org/2000/svg" xmlns:xlink="http://www.w3.org/1999/xlink" x="0px" y="0px" width="380px" height="200px"
	 viewBox="0 0 280 150" style="enable-background:new 0 0 280 150;" xml:space="preserve">
<style type="text/css">
	.st0{fill:#D0766B;}
	.st1{fill:#515151;}
</style>
<g>
	<g>
		<path class="st0" d="M45.6294,35.872h3.8536v14.4434c0,2.9277-0.7208,5.2012-2.1612,6.8203
			c-1.4404,1.6211-3.5078,2.4297-6.2002,2.4297c-2.6924,0-4.7754-1.0488-6.25-3.1504c-1.542,2.1016-3.6367,3.1504-6.2842,3.1504
			c-2.6474,0-4.6923-0.8086-6.1328-2.4297c-1.4404-1.6191-2.1611-3.8926-2.1611-6.8203V35.872h3.8535v14.4434
			c0,1.7441,0.3848,3.0898,1.1563,4.0391c0.7714,0.9492,1.8545,1.4238,3.2509,1.4238c1.3955,0,2.4629-0.4746,3.2002-1.4238
			c0.7373-0.9493,1.1055-2.295,1.1055-4.0391l0.0342-14.4434h3.9541l0.0342,14.4434c0,1.7441,0.3681,3.0898,1.1064,4.0391
			c0.7363,0.9492,1.8027,1.4238,3.1992,1.4238s2.4864-0.4746,3.2676-1.4238c0.7832-0.9493,1.1738-2.295,1.1738-4.0391V35.872z"/>
		<path class="st0" d="M92.4634,47.5849c0.8252-0.3593,1.5342-0.8535,2.1016-1.5078c0.8594-0.9941,1.291-2.2285,1.291-3.7031
			c0-1.6309-0.5596-3.0723-1.6758-4.3242c-1.31931-1.4512-3.5762-2.1778-6.7705-2.1778H76.53178v3.6524H87.3091
			c1.45219,0,2.5645,0.2305,3.335,0.6875c0.7705,0.459,1.1562,1.3242,1.1562,2.5976c0,2.0782-1.665,3.1172-4.9931,3.1172H76.53178
			v1.1543v1.0078v1.1543h10.27542c3.32809,0,4.9931,1.0391,4.9931,3.1172c0,1.2735-0.3857,2.1387-1.1562,2.5977
			c-0.7705,0.457-1.8828,0.6875-3.335,0.6875H76.53178v3.6523h10.87792c3.1943,0,5.45119-0.7265,6.7705-2.1777
			c1.1162-1.252,1.6758-2.6934,1.6758-4.3242c0-1.4746-0.4316-2.709-1.291-3.7032C93.9976,48.4365,93.2886,47.9443,92.4634,47.5849z
			"/>
		<path class="st0" d="M56.5005,47.5849c-0.8252-0.3593-1.5341-0.8535-2.1015-1.5078c-0.8594-0.9941-1.291-2.2285-1.291-3.7031
			c0-1.6309,0.5595-3.0723,1.6757-4.3242c1.3194-1.4512,3.57621-2.1778,6.77054-2.1778h10.87793v3.6524H61.65483
			c-1.45215,0-2.56446,0.2305-3.33496,0.6875c-0.77047,0.459-1.15627,1.3242-1.15627,2.5976c0,2.0782,1.66506,3.1172,4.99318,3.1172
			h10.27539v1.1543v1.0078v1.1543H62.15678c-3.32812,0-4.99318,1.0391-4.99318,3.1172c0,1.2735,0.3858,2.1387,1.15627,2.5977
			c0.7705,0.457,1.88281,0.6875,3.33496,0.6875h10.77734v3.6523H61.55424c-3.19433,0-5.45114-0.7265-6.77054-2.1777
			c-1.1162-1.252-1.6757-2.6934-1.6757-4.3242c0-1.4746,0.4316-2.709,1.291-3.7032C54.9664,48.4365,55.6753,47.9443,56.5005,47.5849
			z"/>
	</g>
	<g>
		<path class="st1" d="M77.58453,90.7529H73.731V76.3076c0-2.9277,0.7207-5.2012,2.16016-6.8203
			c1.44141-1.61919,3.50784-2.4297,6.20114-2.4297c2.6914,0,4.77541,1.0508,6.25,3.1504c1.541-2.0996,3.6367-3.1504,6.2832-3.1504
			c2.6485,0,4.6934,0.8105,6.1328,2.4297c1.44151,1.6191,2.1622,3.8926,2.1622,6.8203v14.4453h-3.8536V76.3076
			c0-1.7422-0.3847-3.0899-1.1562-4.0391c-0.7715-0.9492-1.8555-1.42381-3.25201-1.42381c-1.39449,0-2.4629,0.4746-3.1992,1.42381
			c-0.7383,0.9492-1.1055,2.2969-1.1055,4.0391l-0.0351,14.4453h-3.9531L86.3306,76.3076c0-1.7422-0.3672-3.0899-1.1055-4.0391
			c-0.73631-0.9492-1.8027-1.42381-3.1992-1.42381s-2.4863,0.4746-3.2676,1.42381c-0.7832,0.9492-1.17377,2.2969-1.17377,4.0391
			V90.7529z"/>
		<path class="st1" d="M31.2857,87.167c1.3623,0,2.5351-0.2305,3.5185-0.6875c0.9834-0.4571,2.0108-1.1895,3.083-2.1953
			l2.5469,2.6132c-2.4795,2.7481-5.4902,4.1231-9.0312,4.1231s-6.4805-1.1406-8.8145-3.418
			c-2.334-2.2793-3.5019-5.1621-3.5019-8.6465c0-3.48631,1.1894-6.3906,3.5693-8.7148c2.3799-2.3223,5.3838-3.48441,9.0147-3.48441
			c3.6308,0,6.664,1.3399,9.0996,4.0215l-2.5137,2.748c-1.1172-1.0722-2.1738-1.8203-3.167-2.2461
			c-0.9951-0.4238-2.1611-0.6367-3.5029-0.6367c-2.3672,0-4.3555,0.7657-5.9649,2.2969c-1.6084,1.5293-2.4131,3.4844-2.4131,5.8633
			c0,2.3808,0.7989,4.36909,2.3965,5.9668C27.2017,86.3681,29.0962,87.167,31.2857,87.167z"/>
		<path class="st1" d="M64.86578,87.5185c-2.36817,2.3125-5.29493,3.4688-8.78027,3.4688c-3.4854,0-6.4131-1.1563-8.7803-3.4688
			c-2.3691-2.3125-3.5527-5.1953-3.5527-8.6465c0-3.4531,1.1836-6.3339,3.5527-8.6464c2.3672-2.3125,5.2949-3.4688,8.7803-3.4688
			c3.48534,0,6.4121,1.1563,8.78027,3.4688c2.36816,2.3125,3.55273,5.1933,3.55273,8.6464
			C68.4185,82.3232,67.23393,85.206,64.86578,87.5185z M61.96733,72.8564c-1.59766-1.6543-3.5586-2.4804-5.88183-2.4804
			c-2.3233,0-4.2842,0.8261-5.8818,2.4804c-1.5977,1.6524-2.3965,3.6582-2.3965,6.0156c0,2.3575,0.7988,4.3614,2.3965,6.0157
			c1.5976,1.6523,3.5585,2.4804,5.8818,2.4804c2.32323,0,4.28417-0.8281,5.88183-2.4804
			c1.59765-1.6543,2.39648-3.6582,2.39648-6.0157C64.36382,76.5146,63.56498,74.5088,61.96733,72.8564z"/>
		<path class="st1" d="M125.32481,69.3701c1.6298,1.3633,2.4453,3.4629,2.4453,6.3008s-0.8321,4.916-2.4961,6.2343
			c-1.6641,1.31841-4.2168,1.9766-7.6582,1.9766h-4.1553v6.8711h-3.9541V67.3252h8.043
			C121.1021,67.3252,123.6929,68.0088,125.32481,69.3701z M122.5259,79.04c0.793-0.8379,1.1895-2.0664,1.1895-3.6875
			c0-1.6191-0.502-2.7656-1.5078-3.4355c-1.0059-0.67-2.5801-1.0039-4.7256-1.0039h-4.0215v9.3828h4.5908
			C120.2408,80.2959,121.733,79.8779,122.5259,79.04z"/>
		<path class="st1" d="M152.03371,87.5185c-2.3681,2.3125-5.29491,3.4688-8.7802,3.4688c-3.48541,0-6.4131-1.1563-8.7803-3.4688
			c-2.3692-2.3125-3.5527-5.1953-3.5527-8.6465c0-3.4531,1.1835-6.3339,3.5527-8.6464c2.3672-2.3125,5.29489-3.4688,8.7803-3.4688
			c3.48529,0,6.41209,1.1563,8.7802,3.4688c2.36819,2.3125,3.5528,5.1933,3.5528,8.6464
			C155.5865,82.3232,154.4019,85.206,152.03371,87.5185z M149.1353,72.8564c-1.5977-1.6543-3.55859-2.4804-5.88179-2.4804
			c-2.3233,0-4.28421,0.8261-5.88191,2.4804c-1.5976,1.6524-2.3965,3.6582-2.3965,6.0156c0,2.3575,0.7989,4.3614,2.3965,6.0157
			c1.5977,1.6523,3.55861,2.4804,5.88191,2.4804c2.3232,0,4.28409-0.8281,5.88179-2.4804c1.5977-1.6543,2.3965-3.6582,2.3965-6.0157
			C151.5318,76.5146,150.733,74.5088,149.1353,72.8564z"/>
		<path class="st1" d="M245.7662,90.7529h-3.95511V70.7451c-1.1172,0.1777-2.2227,0.4863-3.3174,0.9219
			c-1.0947,0.4355-1.9102,0.832-2.4463,1.1894l-0.8047,0.502l-2.2119-3.1504c1.09471-0.9824,2.6416-1.8028,4.6416-2.4629
			c1.99901-0.6582,4.0274-0.9883,6.08301-0.9883c2.0547,0,4.08299,0.3301,6.082,0.9883c2,0.6601,3.54689,1.4805,4.6416,2.4629
			l-2.2119,3.1504c-0.625-0.4903-1.59181-1.0059-2.89841-1.541c-1.30659-0.5372-2.5078-0.8946-3.60249-1.0723V90.7529z"/>
		<path class="st1" d="M265.42139,70.4092c-1.15128,0-2.0947,0.2343-2.832,0.70309c-0.73727,0.4707-1.10638,1.1797-1.10638,2.12891
			c0,0.9492,0.36911,1.6758,1.10638,2.1777c0.7373,0.5039,2.30661,1.0449,4.70901,1.627
			c2.4014,0.5801,4.21091,1.3965,5.42871,2.4453c1.21777,1.0508,1.82709,2.5976,1.82709,4.64259
			c0,2.0429-0.77139,3.7031-2.3125,4.9765c-1.5419,1.2735-3.56439,1.9102-6.06641,1.9102c-3.664,0-6.91501-1.2617-9.7529-3.7871
			l2.4805-2.9824c2.3681,2.0546,4.82611,3.082,7.37302,3.082c1.2735,0,2.28418-0.2735,3.0332-0.8203
			c0.74808-0.54691,1.12207-1.27351,1.12207-2.1778c0-0.9062-0.35159-1.6093-1.05569-2.1113
			c-0.70309-0.50391-1.91599-0.9609-3.63568-1.375c-1.7207-0.4121-3.02829-0.793-3.9209-1.1387
			c-0.8945-0.3457-1.6875-0.7988-2.37991-1.3574c-1.38571-1.0508-2.07809-2.6582-2.07809-4.8262
			c0-2.1679,0.78809-3.8378,2.36331-5.0097c1.5752-1.1739,3.52438-1.7598,5.8476-1.7598c1.4971,0,2.9834,0.2461,4.45798,0.73631
			c1.47461,0.4922,2.74811,1.1856,3.82031,2.07819l-2.1113,2.98241c-0.6933-0.625-1.63181-1.1387-2.8154-1.541
			C267.7388,70.6103,266.57181,70.4092,265.42139,70.4092z"/>
		<path class="st1" d="M177.2525,69.5068c-1.73241-1.8105-3.89261-2.7168-6.48241-2.7168c-0.08789,0-0.1797,0.0117-0.26959,0.0137
			c-0.0898-0.00201-0.1797-0.0137-0.2695-0.0137c-2.5898,0-4.75,0.9063-6.48441,2.7168c-1.7285,1.8086-2.5976,4.29881-2.5976,7.4727
			v13.7734h3.957V77.4463c0-2.1875,0.4863-3.8985,1.457-5.127c0.92191-1.166,2.2403-1.7734,3.9375-1.8301
			c1.6993,0.0567,3.0137,0.6641,3.9375,1.8301c0.9727,1.2285,1.459,2.9395,1.459,5.127v13.3066h3.95309V76.9795
			C179.8501,73.8056,178.98489,71.3154,177.2525,69.5068z"/>
		<path class="st1" d="M226.27789,69.5068c-1.73239-1.8105-3.89259-2.7168-6.48239-2.7168c-0.08791,0-0.1797,0.0117-0.26961,0.0137
			c-0.0898-0.00201-0.1797-0.0137-0.2695-0.0137c-2.58989,0-4.75,0.9063-6.48439,2.7168
			c-1.7285,1.8086-2.59761,4.29881-2.59761,7.4727v13.7734h3.957V77.4463c0-2.1875,0.48631-3.8985,1.457-5.127
			c0.92191-1.166,2.24031-1.7734,3.9375-1.8301c1.6992,0.0567,3.0137,0.6641,3.9375,1.8301c0.9727,1.2285,1.459,2.9395,1.459,5.127
			v13.3066h3.95311V76.9795C228.8755,73.8056,228.0103,71.3154,226.27789,69.5068z"/>
		<path class="st1" d="M188.47121,79.2744c-0.82521-0.3613-1.5341-0.8535-2.1015-1.5098c-0.85941-0.9941-1.291-2.2285-1.291-3.7031
			c0-1.6309,0.55949-3.0723,1.67569-4.3223c1.31941-1.45309,3.5762-2.1797,6.77051-2.1797h10.87799v3.6543H193.6255
			c-1.4521,0-2.56441,0.2286-3.3349,0.6856c-0.77051,0.459-1.15631,1.3242-1.15631,2.5976c0,2.0782,1.6651,3.1172,4.99321,3.1172
			h10.27539v1.1563v1.0058v1.1563H194.1275c-3.32811,0-4.99321,1.0391-4.99321,3.1172c0,1.2734,0.3858,2.1387,1.15631,2.5976
			c0.77049,0.4571,1.8828,0.6856,3.3349,0.6856h10.77739v3.6543H193.5249c-3.19431,0-5.4511-0.7266-6.77051-2.1797
			c-1.1162-1.25-1.67569-2.6914-1.67569-4.3223c0-1.4746,0.43159-2.709,1.291-3.7031
			C186.9371,80.126,187.646,79.6338,188.47121,79.2744z"/>
	</g>
	<g>
		<path class="st0" d="M99.94981,98.2451h3.9091v11.3008l10.6045-11.3008h4.9707l-9.3115,10.1426l9.4434,13.0215h-4.6397
			l-7.6865-10.1407l-3.3809,3.6446v6.4961h-3.9091V98.2451z"/>
		<path class="st0" d="M123.2779,121.4092V98.2451h3.9111v19.45309h10.5693v3.71101H123.2779z"/>
		<path class="st0" d="M45.3453,98.2138h3.8105v14.2813c0,2.8965-0.7129,5.1426-2.1367,6.74409
			c-1.4248,1.6035-3.4688,2.4024-6.1309,2.4024c-2.6631,0-4.7226-1.0371-6.1797-3.1153c-1.5244,2.0782-3.5966,3.1153-6.2138,3.1153
			c-2.6182,0-4.6397-0.7989-6.0645-2.4024c-1.4238-1.60149-2.1367-3.8476-2.1367-6.74409V98.2138h3.8105v14.2813
			c0,1.72459,0.3809,3.05659,1.1426,3.99409c0.7637,0.93951,1.835,1.4082,3.2158,1.4082c1.379,0,2.4336-0.4687,3.1631-1.4082
			c0.7305-0.9375,1.0938-2.2695,1.0938-3.99409l0.0332-14.2813h3.9092l0.0351,14.2813c0,1.72459,0.3633,3.05659,1.0938,3.99409
			c0.7275,0.93951,1.7832,1.4082,3.164,1.4082c1.3809,0,2.4571-0.4687,3.2305-1.4082c0.7744-0.9375,1.1602-2.2695,1.1602-3.99409
			V98.2138z"/>
		<path class="st0" d="M143.73981,119.2197c1.71289,1.79301,3.84959,2.6875,6.4101,2.6875c0.086,0,0.1778-0.0117,0.2657-0.01369
			c0.0898,0.002,0.1777,0.01369,0.2675,0.01369c2.56059,0,4.6954-0.89449,6.4122-2.6875
			c1.70799-1.78709,2.56729-4.25,2.56729-7.3867V98.2138h-3.91209v13.1543c0,2.16409-0.48041,3.8555-1.44141,5.0704
			c-0.9111,1.1542-2.2148,1.7539-3.89349,1.8125c-1.6797-0.0586-2.9785-0.6583-3.89261-1.8125
			c-0.9619-1.2149-1.44339-2.9063-1.44339-5.0704V98.2138h-3.9082v13.6192C141.1714,114.9697,142.0269,117.4326,143.73981,119.2197z
			"/>
		<path class="st0" d="M56.7183,109.7959c-0.8154-0.3574-1.5176-0.8457-2.0781-1.4942c-0.8506-0.9824-1.2774-2.2011-1.2774-3.6582
			c0-1.6133,0.5547-3.039,1.6582-4.2773c1.3037-1.4356,3.53422-2.1524,6.69437-2.1524h10.75586v3.6114H61.81498
			c-1.43652,0-2.53711,0.22649-3.29882,0.6797c-0.76172,0.4531-1.14256,1.3105-1.14256,2.5664
			c0,2.0566,1.64646,3.0839,4.93748,3.0839h10.16015v1.1426v0.9942v1.1445H62.31108c-3.29102,0-4.93748,1.0254-4.93748,3.082
			c0,1.2559,0.38084,2.1133,1.14256,2.5664c0.76171,0.4532,1.8623,0.6797,3.29882,0.6797h10.65625v3.6133H61.71537
			c-3.16015,0-5.39067-0.7187-6.69437-2.1543c-1.1035-1.2383-1.6582-2.6641-1.6582-4.27731c0-1.4571,0.4268-2.6758,1.2774-3.6582
			C55.2007,110.6396,55.9029,110.1513,56.7183,109.7959z"/>
		<path class="st0" d="M78.5806,109.7959c-0.8164-0.3574-1.51855-0.8457-2.07909-1.4942
			c-0.84961-0.9824-1.27832-2.2011-1.27832-3.6582c0-1.6133,0.5547-3.039,1.66015-4.2773
			c1.30376-1.4356,3.53316-2.1524,6.69437-2.1524h10.7539v3.6114H83.6753c-1.4355,0-2.5351,0.22649-3.2968,0.6797
			c-0.7618,0.4531-1.1436,1.3105-1.1436,2.5664c0,2.0566,1.6475,3.0839,4.9385,3.0839h10.1582v1.1426v0.9942v1.1445H84.1734
			c-3.291,0-4.9385,1.0254-4.9385,3.082c0,1.2559,0.3818,2.1133,1.1436,2.5664c0.7617,0.4532,1.8613,0.6797,3.2968,0.6797h10.6563
			v3.6133h-10.7539c-3.1612,0-5.3906-0.7187-6.69437-2.1543c-1.10545-1.2383-1.66015-2.6641-1.66015-4.27731
			c0-1.4571,0.42871-2.6758,1.27832-3.6582C77.06205,110.6396,77.76421,110.1513,78.5806,109.7959z"/>
	</g>
	<path class="st0" d="M148.45171,119.9111v8.127h0.00099c-0.08989,1.55859-0.47369,2.7793-1.5752,3.64839
		c-1.2285,0.9707-2.9375,1.457-5.127,1.457h-25.3418H41.4458H16.104c-2.1894,0-3.8984-0.4863-5.1269-1.457
		c-1.127-0.88869-1.5039-2.1465-1.582-3.75779h0.0078V22.622c0-2.1875,0.4863-3.8984,1.457-5.1269
		c0.9219-1.166,2.2402-1.7734,3.9375-1.8301c1.6992,0.0567,3.0137,0.6641,3.9375,1.8301c0.9727,1.2285,1.459,2.9394,1.459,5.1269
		v13.3067h3.9531V22.1552c0-3.1738-0.8652-5.664-2.5976-7.4726c-1.7325-1.8106-3.8926-2.7168-6.4825-2.7168
		c-0.0879,0-0.1797,0.0117-0.2695,0.0137c-0.0898-0.002-0.1797-0.0137-0.2695-0.0137c-2.5899,0-4.75,0.9062-6.4844,2.7168
		c-1.7285,1.8086-2.5977,4.2988-2.5977,7.4726V127.9287h0.0049c-0.0019,0.0293-0.0049,0.06049-0.0049,0.08979
		c0,2.5899,0.9063,4.75,2.7168,6.48441c1.8086,1.7285,4.2989,2.5977,7.4727,2.5977h25.8105h74.9629h25.8106
		c3.1738,0,5.664-0.8692,7.47261-2.5977c1.80669-1.7305,2.71199-3.8848,2.7159-6.4648h0.0009v-8.127H148.45171z"/>
</g>
</svg>
